<mxfile host="app.diagrams.net" agent="Mozilla/5.0 (Windows NT 10.0; Win64; x64) AppleWebKit/537.36 (KHTML, like Gecko) Chrome/127.0.0.0 Safari/537.36" version="24.7.7">
  <diagram name="Página-1" id="3mLmWKsI4hGv0Ojf-3L5">
    <mxGraphModel dx="1035" dy="501" grid="1" gridSize="10" guides="1" tooltips="1" connect="1" arrows="1" fold="1" page="1" pageScale="1" pageWidth="827" pageHeight="1169" math="0" shadow="0">
      <root>
        <mxCell id="0" />
        <mxCell id="1" parent="0" />
        <mxCell id="9mBFEMwNeTSu81Gy4B-P-27" style="edgeStyle=orthogonalEdgeStyle;rounded=0;orthogonalLoop=1;jettySize=auto;html=1;exitX=0.5;exitY=1;exitDx=0;exitDy=0;" edge="1" parent="1" source="9mBFEMwNeTSu81Gy4B-P-21" target="9mBFEMwNeTSu81Gy4B-P-22">
          <mxGeometry relative="1" as="geometry" />
        </mxCell>
        <mxCell id="9mBFEMwNeTSu81Gy4B-P-21" value="INICIO" style="ellipse;whiteSpace=wrap;html=1;" vertex="1" parent="1">
          <mxGeometry x="354" y="30" width="120" height="80" as="geometry" />
        </mxCell>
        <mxCell id="9mBFEMwNeTSu81Gy4B-P-28" style="edgeStyle=orthogonalEdgeStyle;rounded=0;orthogonalLoop=1;jettySize=auto;html=1;exitX=0.5;exitY=1;exitDx=0;exitDy=0;entryX=0.5;entryY=0;entryDx=0;entryDy=0;" edge="1" parent="1" source="9mBFEMwNeTSu81Gy4B-P-22" target="9mBFEMwNeTSu81Gy4B-P-23">
          <mxGeometry relative="1" as="geometry" />
        </mxCell>
        <mxCell id="9mBFEMwNeTSu81Gy4B-P-22" value="ler n1,n2" style="shape=parallelogram;perimeter=parallelogramPerimeter;whiteSpace=wrap;html=1;fixedSize=1;" vertex="1" parent="1">
          <mxGeometry x="354" y="130" width="120" height="60" as="geometry" />
        </mxCell>
        <mxCell id="9mBFEMwNeTSu81Gy4B-P-29" style="edgeStyle=orthogonalEdgeStyle;rounded=0;orthogonalLoop=1;jettySize=auto;html=1;exitX=0.5;exitY=1;exitDx=0;exitDy=0;entryX=0.5;entryY=0;entryDx=0;entryDy=0;" edge="1" parent="1" source="9mBFEMwNeTSu81Gy4B-P-23" target="9mBFEMwNeTSu81Gy4B-P-24">
          <mxGeometry relative="1" as="geometry" />
        </mxCell>
        <mxCell id="9mBFEMwNeTSu81Gy4B-P-23" value="calcular media&lt;div&gt;media=(N1+N2 )/2&lt;/div&gt;" style="rounded=0;whiteSpace=wrap;html=1;" vertex="1" parent="1">
          <mxGeometry x="354" y="230" width="120" height="60" as="geometry" />
        </mxCell>
        <mxCell id="9mBFEMwNeTSu81Gy4B-P-25" value="falso&lt;div style=&quot;font-size: 15px;&quot;&gt;NÃO&lt;/div&gt;" style="edgeStyle=orthogonalEdgeStyle;rounded=0;orthogonalLoop=1;jettySize=auto;html=1;exitX=1;exitY=0.5;exitDx=0;exitDy=0;fontSize=15;" edge="1" parent="1" source="9mBFEMwNeTSu81Gy4B-P-24">
          <mxGeometry x="0.114" y="20" relative="1" as="geometry">
            <mxPoint x="680" y="369.5882352941177" as="targetPoint" />
            <mxPoint as="offset" />
          </mxGeometry>
        </mxCell>
        <mxCell id="9mBFEMwNeTSu81Gy4B-P-26" value="Verdadeiro&lt;div style=&quot;font-size: 14px;&quot;&gt;sim&lt;/div&gt;" style="edgeStyle=orthogonalEdgeStyle;rounded=0;orthogonalLoop=1;jettySize=auto;html=1;exitX=0;exitY=0.5;exitDx=0;exitDy=0;fontSize=14;" edge="1" parent="1" source="9mBFEMwNeTSu81Gy4B-P-24">
          <mxGeometry x="-0.0786" y="-20" relative="1" as="geometry">
            <mxPoint x="170" y="369.5882352941177" as="targetPoint" />
            <mxPoint as="offset" />
          </mxGeometry>
        </mxCell>
        <mxCell id="9mBFEMwNeTSu81Gy4B-P-24" value="MEDIA maior que 6?&lt;div&gt;media &amp;gt; 6&lt;/div&gt;" style="rhombus;whiteSpace=wrap;html=1;" vertex="1" parent="1">
          <mxGeometry x="374" y="330" width="80" height="80" as="geometry" />
        </mxCell>
        <mxCell id="9mBFEMwNeTSu81Gy4B-P-34" style="edgeStyle=orthogonalEdgeStyle;rounded=0;orthogonalLoop=1;jettySize=auto;html=1;exitX=0.5;exitY=1;exitDx=0;exitDy=0;entryX=0;entryY=0.5;entryDx=0;entryDy=0;" edge="1" parent="1" source="9mBFEMwNeTSu81Gy4B-P-30" target="9mBFEMwNeTSu81Gy4B-P-32">
          <mxGeometry relative="1" as="geometry" />
        </mxCell>
        <mxCell id="9mBFEMwNeTSu81Gy4B-P-30" value="Imprima&amp;nbsp;&lt;div&gt;&quot;APROVADO&quot;&lt;/div&gt;" style="rounded=0;whiteSpace=wrap;html=1;" vertex="1" parent="1">
          <mxGeometry x="50" y="340" width="120" height="60" as="geometry" />
        </mxCell>
        <mxCell id="9mBFEMwNeTSu81Gy4B-P-33" style="edgeStyle=orthogonalEdgeStyle;rounded=0;orthogonalLoop=1;jettySize=auto;html=1;exitX=0.5;exitY=1;exitDx=0;exitDy=0;entryX=1;entryY=0.5;entryDx=0;entryDy=0;" edge="1" parent="1" source="9mBFEMwNeTSu81Gy4B-P-31" target="9mBFEMwNeTSu81Gy4B-P-32">
          <mxGeometry relative="1" as="geometry" />
        </mxCell>
        <mxCell id="9mBFEMwNeTSu81Gy4B-P-31" value="" style="rounded=0;whiteSpace=wrap;html=1;" vertex="1" parent="1">
          <mxGeometry x="680" y="340" width="120" height="60" as="geometry" />
        </mxCell>
        <mxCell id="9mBFEMwNeTSu81Gy4B-P-32" value="FIM" style="ellipse;whiteSpace=wrap;html=1;" vertex="1" parent="1">
          <mxGeometry x="354" y="580" width="120" height="80" as="geometry" />
        </mxCell>
      </root>
    </mxGraphModel>
  </diagram>
</mxfile>
